<svg viewBox="0 0 51 67" fill="none" xmlns="http://www.w3.org/2000/svg">
<g transform="translate(-49 -42)">
<path d="M76.0555 74.9605L65.4196 65.8727L75.0886 45.3734L89.5922 61.6401L76.0555 74.9605Z" fill="url(#paint1_linear_340_75)" stroke="black"/>
<path d="M65.4195 66.1218L51.2102 74.7116L60.2907 96.1654L75.509 74.7116L65.4195 66.1218Z" fill="url(#paint2_linear_340_75)" stroke="black"/>
<path d="M73.9955 74.0477L60.4589 96.0409L75.3828 105.834L92.9973 93.0946L97.958 73.0103L83.4544 83.9654L73.9955 74.0477Z" fill="url(#paint3_linear_340_75)"/>
<path d="M66.7648 67.6572L51.6306 73.5912L72.2299 50.0211L66.7648 67.6572Z" fill="#793C00"/>
<path d="M89.4239 61.6401L74.3318 73.7156L83.3282 83.7993L97.8318 72.5952L89.4239 61.6401Z" fill="url(#paint4_linear_340_75)"/>
<g filter="url(#filter1_d_340_75)">
<path d="M51 74.7531L75.1726 45L98 71.4333L93.3336 92.8456L75.1726 106L60.3748 95.6258L51 74.7531Z" stroke="#FF8000" stroke-width="2.5" stroke-linejoin="round" shape-rendering="crispEdges"/>
</g>
<path d="M75.1306 45.4979L66.9329 67.2836L51.4624 75.0435" stroke="#FF8000" stroke-width="2.5" stroke-linejoin="round"/>
<path d="M66.1763 66.6198L74.7103 73.1347L83.4124 84.1728L97.8319 71.8068" stroke="#FF8000" stroke-width="2.5" stroke-linejoin="round"/>
<path d="M89.5922 61.4326L73.9956 73.7156L60.7532 95.6258" stroke="#FF8000" stroke-width="2.5" stroke-linejoin="round"/>
</g>
<defs>
<filter id="filter0_f_340_75" x="19.4231" y="11.3354" width="107.985" height="126.176" filterUnits="userSpaceOnUse" color-interpolation-filters="sRGB">
<feFlood flood-opacity="0" result="BackgroundImageFix"/>
<feBlend mode="normal" in="SourceGraphic" in2="BackgroundImageFix" result="shape"/>
<feGaussianBlur stdDeviation="11.45" result="effect1_foregroundBlur_340_75"/>
</filter>
<filter id="filter1_d_340_75" x="-39.05" y="-45.05" width="227.1" height="241.1" filterUnits="userSpaceOnUse" color-interpolation-filters="sRGB">
<feFlood flood-opacity="0" result="BackgroundImageFix"/>
<feColorMatrix in="SourceAlpha" type="matrix" values="0 0 0 0 0 0 0 0 0 0 0 0 0 0 0 0 0 0 127 0" result="hardAlpha"/>
<feOffset/>
<feGaussianBlur stdDeviation="44.4"/>
<feComposite in2="hardAlpha" operator="out"/>
<feColorMatrix type="matrix" values="0 0 0 0 0.77325 0 0 0 0 0.388135 0 0 0 0 0.00302051 0 0 0 1 0"/>
<feBlend mode="normal" in2="BackgroundImageFix" result="effect1_dropShadow_340_75"/>
<feBlend mode="normal" in="SourceGraphic" in2="effect1_dropShadow_340_75" result="shape"/>
</filter>
<linearGradient id="paint0_linear_340_75" x1="73.4154" y1="34.2354" x2="73.4154" y2="114.612" gradientUnits="userSpaceOnUse">
<stop stop-color="#FF8000"/>
<stop offset="1" stop-color="#0C85EE"/>
</linearGradient>
<linearGradient id="paint1_linear_340_75" x1="75.3829" y1="71.1843" x2="76.2021" y2="50.4351" gradientUnits="userSpaceOnUse">
<stop stop-color="#894500"/>
<stop offset="1" stop-color="#C56404"/>
</linearGradient>
<linearGradient id="paint2_linear_340_75" x1="61.1315" y1="90.5633" x2="73.4586" y2="74.6804" gradientUnits="userSpaceOnUse">
<stop stop-color="#0B2946"/>
<stop offset="1" stop-color="#693500"/>
</linearGradient>
<linearGradient id="paint3_linear_340_75" x1="95.2674" y1="82.679" x2="75.9128" y2="104.134" gradientUnits="userSpaceOnUse">
<stop stop-color="#6F3800"/>
<stop offset="0.980715" stop-color="#092132"/>
</linearGradient>
<linearGradient id="paint4_linear_340_75" x1="89.8443" y1="64.4619" x2="83.4768" y2="82.4824" gradientUnits="userSpaceOnUse">
<stop stop-color="#D96E00"/>
<stop offset="1" stop-color="#4E2700"/>
</linearGradient>
</defs>
</svg>
